HIERARCHY
ROOT hip
{
  OFFSET 0 0 0
  CHANNELS 6 Xposition Yposition Zposition Zrotation Yrotation Xrotation
  JOINT abdomen
  {
    OFFSET 0 20.6881 -0.73152
    CHANNELS 3 Zrotation Xrotation Yrotation
    JOINT chest
    {
      OFFSET 0 11.7043 -0.48768
      CHANNELS 3 Zrotation Xrotation Yrotation
      JOINT neck
      {
        OFFSET 0 22.1894 -2.19456
        CHANNELS 3 Zrotation Xrotation Yrotation
        JOINT head
        {
          OFFSET -0.24384 7.07133 1.2192
          CHANNELS 3 Zrotation Xrotation Yrotation
          JOINT leftEye
          {
            OFFSET 4.14528 8.04674 8.04672
            CHANNELS 3 Zrotation Xrotation Yrotation
            End Site
            {
              OFFSET 1 0 0
            }
          }
          JOINT rightEye
          {
            OFFSET -3.6576 8.04674 8.04672
            CHANNELS 3 Zrotation Xrotation Yrotation
            End Site
            {
              OFFSET 1 0 0
            }
          }
        }
      }
      JOINT rCollar
      {
        OFFSET -2.68224 19.2634 -4.8768
        CHANNELS 3 Zrotation Xrotation Yrotation
        JOINT rShldr
        {
          OFFSET -8.77824 -1.95073 1.46304
          CHANNELS 3 Zrotation Xrotation Yrotation
          JOINT rForeArm
          {
            OFFSET -28.1742 -1.7115 0.48768
            CHANNELS 3 Zrotation Xrotation Yrotation
            JOINT rHand
            {
              OFFSET -22.5879 0.773209 7.07136
              CHANNELS 3 Zrotation Xrotation Yrotation
              JOINT rThumb1
              {
                OFFSET -1.2192 -0.487915 3.41376
                CHANNELS 3 Zrotation Xrotation Yrotation
                JOINT rThumb2
                {
                  OFFSET -3.37035 -0.52449 3.41376
                  CHANNELS 3 Zrotation Xrotation Yrotation
                  End Site
                  {
                    OFFSET -1.78271 -1.18214 1.43049
                  }
                }
              }
              JOINT rIndex1
              {
                OFFSET -7.75947 0.938293 5.60832
                CHANNELS 3 Zrotation Xrotation Yrotation
                JOINT rIndex2
                {
                  OFFSET -2.54057 -0.884171 1.56538
                  CHANNELS 3 Zrotation Xrotation Yrotation
                  End Site
                  {
                    OFFSET -1.62519 -0.234802 1.16502
                  }
                }
              }
              JOINT rMid1
              {
                OFFSET -8.24714 1.18213 3.41376
                CHANNELS 3 Zrotation Xrotation Yrotation
                JOINT rMid2
                {
                  OFFSET -3.10165 -0.590103 1.0647
                  CHANNELS 3 Zrotation Xrotation Yrotation
                  End Site
                  {
                    OFFSET -2.48547 -0.328903 0.83742
                  }
                }
              }
              JOINT rRing1
              {
                OFFSET -8.82822 0.546677 1.51678
                CHANNELS 3 Zrotation Xrotation Yrotation
                JOINT rRing2
                {
                  OFFSET -2.60934 -0.819778 -0.0198488
                  CHANNELS 3 Zrotation Xrotation Yrotation
                  End Site
                  {
                    OFFSET -2.33842 -0.294052 0.168128
                  }
                }
              }
              JOINT rPinky1
              {
                OFFSET -8.27202 -0.0477905 -0.4584
                CHANNELS 3 Zrotation Xrotation Yrotation
                JOINT rPinky2
                {
                  OFFSET -1.82734 -0.647385 -0.700984
                  CHANNELS 3 Zrotation Xrotation Yrotation
                  End Site
                  {
                    OFFSET -1.69225 -0.51767 -0.607171
                  }
                }
              }
            }
          }
        }
      }
      JOINT lCollar
      {
        OFFSET 2.68224 19.2634 -4.8768
        CHANNELS 3 Zrotation Xrotation Yrotation
        JOINT lShldr
        {
          OFFSET 8.77824 -1.95073 1.46304
          CHANNELS 3 Zrotation Xrotation Yrotation
          JOINT lForeArm
          {
            OFFSET 28.1742 -1.7115 0.48768
            CHANNELS 3 Zrotation Xrotation Yrotation
            JOINT lHand
            {
              OFFSET 22.5879 0.773209 7.07136
              CHANNELS 3 Zrotation Xrotation Yrotation
              JOINT lThumb1
              {
                OFFSET 1.2192 -0.487915 3.41376
                CHANNELS 3 Zrotation Xrotation Yrotation
                JOINT lThumb2
                {
                  OFFSET 3.37035 -0.52449 3.41376
                  CHANNELS 3 Zrotation Xrotation Yrotation
                  End Site
                  {
                    OFFSET 1.78271 -1.18214 1.43049
                  }
                }
              }
              JOINT lIndex1
              {
                OFFSET 7.75947 0.938293 5.60832
                CHANNELS 3 Zrotation Xrotation Yrotation
                JOINT lIndex2
                {
                  OFFSET 2.54057 -0.884171 1.56538
                  CHANNELS 3 Zrotation Xrotation Yrotation
                  End Site
                  {
                    OFFSET 1.62519 -0.234802 1.16502
                  }
                }
              }
              JOINT lMid1
              {
                OFFSET 8.24714 1.18213 3.41376
                CHANNELS 3 Zrotation Xrotation Yrotation
                JOINT lMid2
                {
                  OFFSET 3.10165 -0.590103 1.0647
                  CHANNELS 3 Zrotation Xrotation Yrotation
                  End Site
                  {
                    OFFSET 2.48547 -0.328903 0.83742
                  }
                }
              }
              JOINT lRing1
              {
                OFFSET 8.82822 0.546677 1.51678
                CHANNELS 3 Zrotation Xrotation Yrotation
                JOINT lRing2
                {
                  OFFSET 2.60934 -0.819778 -0.0198488
                  CHANNELS 3 Zrotation Xrotation Yrotation
                  End Site
                  {
                    OFFSET 2.33842 -0.294052 0.168128
                  }
                }
              }
              JOINT lPinky1
              {
                OFFSET 8.27202 -0.0477905 -0.4584
                CHANNELS 3 Zrotation Xrotation Yrotation
                JOINT lPinky2
                {
                  OFFSET 1.82734 -0.647385 -0.700984
                  CHANNELS 3 Zrotation Xrotation Yrotation
                  End Site
                  {
                    OFFSET 1.69225 -0.51767 -0.607171
                  }
                }
              }
            }
          }
        }
      }
    }
  }
  JOINT rButtock
  {
    OFFSET -8.77824 4.35084 1.2192
    CHANNELS 3 Zrotation Xrotation Yrotation
    JOINT rThigh
    {
      OFFSET 0 -1.70687 -2.19456
      CHANNELS 3 Zrotation Xrotation Yrotation
      JOINT rShin
      {
        OFFSET 0 -36.8199 0.73152
        CHANNELS 3 Zrotation Xrotation Yrotation
        JOINT rFoot
        {
          OFFSET 0.73152 -45.1104 -5.12064
          CHANNELS 3 Zrotation Xrotation Yrotation
          End Site
          {
            OFFSET -1.1221 -3.69964 12.103
          }
        }
      }
    }
  }
  JOINT lButtock
  {
    OFFSET 8.77824 4.35084 1.2192
    CHANNELS 3 Zrotation Xrotation Yrotation
    JOINT lThigh
    {
      OFFSET 0 -1.70687 -2.19456
      CHANNELS 3 Zrotation Xrotation Yrotation
      JOINT lShin
      {
        OFFSET 0 -36.8199 0.73152
        CHANNELS 3 Zrotation Xrotation Yrotation
        JOINT lFoot
        {
          OFFSET -0.73152 -45.1104 -5.12064
          CHANNELS 3 Zrotation Xrotation Yrotation
          End Site
          {
            OFFSET 1.1221 -3.69964 12.103
          }
        }
      }
    }
  }
}
MOTION
Frames:	4
Frame Time:	0.00833333
-35.5485 85.1932 237.206 0.0 0.0 0.0 0.572865 -0.00324251 0.0163892 0.158164 -0.00505499 0.027405 2.61373e-15 0.0 1.30452e-16 7.92654e-15 3.18055e-15 4.09993e-16 -0.0 0.0 0.0 -0.0 0.0 0.0 1.29078e-15 -5.82377e-18 1.98785e-16 3.09933e-14 -1.42876e-16 2.38542e-15 4.86178e-13 -1.51871e-13 3.18055e-15 5.58021e-12 1.186e-13 3.08514e-13 1.31586e-11 -7.83584e-14 6.71097e-13 2.27259e-11 -1.36764e-13 1.16249e-12 1.31667e-11 -7.39479e-14 6.58375e-13 7.73091 5.47488 0.417314 1.31585e-11 -7.82218e-14 6.77458e-13 2.90554 0.965183 0.102902 1.31721e-11 -7.81224e-14 6.72687e-13 10.2786 0.731801 0.0259123 1.31584e-11 -7.91163e-14 6.83819e-13 2.22167 -0.733487 -0.20892 1.19411e-15 -6.60027e-18 -9.93923e-17 2.62735e-14 -1.61513e-16 7.95139e-16 4.86724e-13 1.43523e-13 4.45278e-14 5.57544e-12 -1.64718e-13 2.70347e-13 1.31528e-11 -5.26406e-14 6.74278e-13 2.27127e-11 -9.54166e-14 1.17283e-12 1.31464e-11 -5.00937e-14 6.83819e-13 -7.73091 5.47488 -0.417314 1.31521e-11 -5.17834e-14 6.80639e-13 -2.90554 0.965183 -0.102902 1.31389e-11 -5.17834e-14 6.76663e-13 -10.2786 0.731801 -0.0259123 1.3157e-11 -5.32743e-14 6.67916e-13 -2.22167 -0.733487 0.20892 -2.03217e-16 0.0 -3.88251e-19 0.920388 -4.54483 -0.0776184 -0.00189466 2.68071 -0.00763029 -0.489832 1.8645 0.093645 2.03217e-16 0.0 3.88251e-19 -0.047778 -2.33549 0.0218163 0.00803191 -1.32111 0.0687507 0.481335 3.65688 -0.128867
-36.5695 82.493 225.43 -177.83 -16.0188 -165.695 1.57678 -4.69746 2.87747 -0.813275 1.11618 0.767852 -7.02073 5.37529 -0.635412 15.7249 -5.92283 0.187114 -0.0 0.0 0.0 -0.0 0.0 0.0 6.1593e-14 -2.11669e-13 -1.17194e-14 12.4631 24.8315 -5.98774 -25.9556 -23.6873 14.145 0.429151 -14.713 -1.83481 -8.63734e-10 3.84772e-10 -2.7336e-10 -1.47449e-09 6.85158e-10 -5.0951e-10 -8.63727e-10 3.84775e-10 -2.73373e-10 7.73091 5.47488 0.417314 -8.63734e-10 3.84772e-10 -2.73356e-10 2.90554 0.965183 0.102902 -8.63724e-10 3.84772e-10 -2.73359e-10 10.2786 0.731801 0.0259123 -8.63736e-10 3.84772e-10 -2.73349e-10 2.22167 -0.733487 -0.20892 6.15496e-14 -2.1167e-13 -1.20164e-14 -11.6463 26.1236 5.5659 27.6131 -25.0957 -13.4821 -1.84067 -30.9427 2.34969 -1.15076e-10 -1.03707e-10 -4.73338e-11 -1.84059e-10 -1.44014e-10 -9.36414e-11 -1.15082e-10 -1.03709e-10 -4.73229e-11 -7.73091 5.47488 -0.417314 -1.15076e-10 -1.03706e-10 -4.73294e-11 -2.90554 0.965183 -0.102902 -1.15088e-10 -1.03706e-10 -4.7333e-11 -10.2786 0.731801 -0.0259123 -1.15073e-10 -1.03707e-10 -4.73413e-11 -2.22167 -0.733487 0.20892 -2.03217e-16 0.0 -3.88251e-19 1.5243 -10.0763 -3.54507 0.00832352 8.77591 0.0919452 -0.154453 -3.50697 2.73942 2.03217e-16 0.0 3.88251e-19 1.26551 -10.0965 2.32998 0.00303099 6.54638 -0.0512701 0.254719 -1.42486 -2.04972
-36.5597 82.4926 225.425 -177.794 -15.9883 -165.713 3.16002 -9.62655 5.97296 -1.87747 2.30568 1.5534 -14.3055 11.0533 -1.32143 32.3809 -12.1802 0.400584 -0.0 0.0 0.0 -0.0 0.0 0.0 1.32334e-13 -4.63692e-13 -3.26349e-14 34.0875 50.0655 -17.576 -37.2231 -43.4274 37.9924 -0.296112 -30.4134 -4.2568 -1.86676e-09 8.00251e-10 -5.53608e-10 -3.18815e-09 1.42747e-09 -1.03621e-09 -1.86675e-09 8.00252e-10 -5.53621e-10 7.73091 5.47488 0.417314 -1.86676e-09 8.00249e-10 -5.53607e-10 2.90554 0.965183 0.102902 -1.86675e-09 8.00249e-10 -5.53608e-10 10.2786 0.731801 0.0259123 -1.86677e-09 8.00251e-10 -5.53599e-10 2.22167 -0.733487 -0.20892 1.3235e-13 -4.63693e-13 -3.29299e-14 -32.672 52.749 17.1327 39.5384 -46.3285 -37.7993 2.06924 -63.5418 9.32369 -2.3874e-10 -1.83151e-10 -1.16314e-10 -3.8026e-10 -2.40815e-10 -2.24904e-10 -2.38745e-10 -1.83158e-10 -1.16302e-10 -7.73091 5.47488 -0.417314 -2.3874e-10 -1.83148e-10 -1.16312e-10 -2.90554 0.965183 -0.102902 -2.38749e-10 -1.83149e-10 -1.16315e-10 -10.2786 0.731801 -0.0259123 -2.38738e-10 -1.8315e-10 -1.16323e-10 -2.22167 -0.733487 0.20892 -2.03217e-16 0.0 -3.88251e-19 1.41018 -15.8338 -7.38931 -0.00465469 15.2146 0.201956 0.747638 -9.15061 5.61062 2.03217e-16 0.0 3.88251e-19 3.37012 -18.2543 4.95151 0.0345073 14.8654 -0.183596 -0.358609 -6.78314 -4.11437
-36.5241 82.4924 225.42 -177.703 -15.967 -165.736 5.0214 -13.9429 8.83286 -2.8432 3.35636 2.25217 -20.6921 16.1178 -1.97553 47.2956 -17.7677 0.586312 -0.0 0.0 0.0 -0.0 0.0 0.0 1.82197e-13 -6.34996e-13 -3.55557e-14 75.8545 67.8919 -48.2128 -31.1809 -48.1981 70.044 -2.46288 -43.9211 -7.40116 -2.61752e-09 1.15447e-09 -8.21422e-10 -4.46893e-09 2.05575e-09 -1.53085e-09 -2.61751e-09 1.15447e-09 -8.21436e-10 7.73091 5.47488 0.417314 -2.61752e-09 1.15447e-09 -8.21423e-10 2.90554 0.965183 0.102902 -2.61752e-09 1.15447e-09 -8.21423e-10 10.2786 0.731801 0.0259123 -2.61753e-09 1.15448e-09 -8.21414e-10 2.22167 -0.733487 -0.20892 1.82261e-13 -6.34997e-13 -3.58503e-14 -79.8565 71.3039 53.7808 31.2118 -51.5406 -73.3078 106.476 -83.3009 115.471 -3.71535e-10 -3.11017e-10 -1.4335e-10 -5.97603e-10 -4.3185e-10 -2.8327e-10 -3.71538e-10 -3.11026e-10 -1.43336e-10 -7.73091 5.47488 -0.417314 -3.71533e-10 -3.11013e-10 -1.43349e-10 -2.90554 0.965183 -0.102902 -3.71542e-10 -3.11014e-10 -1.43352e-10 -10.2786 0.731801 -0.0259123 -3.71534e-10 -3.11014e-10 -1.4336e-10 -2.22167 -0.733487 0.20892 -2.03217e-16 0.0 -3.88251e-19 0.610249 -20.8372 -11.0469 -0.0387428 20.9661 0.308259 2.03712 -14.1197 8.2671 2.03217e-16 0.0 3.88251e-19 5.93904 -25.4477 7.57686 0.0976023 22.2811 -0.313695 -1.2349 -11.5291 -6.01177
